<svg width="132" height="24" viewBox="0 0 132 24" fill="none" xmlns="http://www.w3.org/2000/svg">
<path fill-rule="evenodd" clip-rule="evenodd" d="M21.8994 13.9875C22.0947 14.5878 22.3588 15.1537 22.6918 15.6851C23.5124 16.9703 24.666 17.969 26.1524 18.6812C27.6389 19.378 29.3498 19.7264 31.2853 19.7264C32.9421 19.7264 34.3743 19.409 35.5821 18.7741C36.8053 18.1393 37.7034 17.1793 38.2763 15.8941L38.6247 19.3548H41.3188V10.2271H28.8466V13.4787H36.2092C35.8995 14.2683 35.3034 14.8412 34.4208 15.1974C33.5382 15.5535 32.493 15.7316 31.2853 15.7316C29.7214 15.7316 28.475 15.3445 27.546 14.5703C26.6324 13.7961 26.1756 12.6812 26.1756 11.2258C26.1756 9.7548 26.6479 8.63996 27.5924 7.88125C28.5369 7.10706 29.8453 6.71996 31.5176 6.71996C32.9421 6.71996 34.0724 6.90577 34.9085 7.27738C35.7447 7.64899 36.1627 8.23738 36.1627 9.04254H41.0634C41.0634 7.80383 40.6376 6.70448 39.7859 5.74448C38.9343 4.78448 37.7653 4.04125 36.2788 3.5148C34.7924 2.98835 33.1279 2.72513 31.2853 2.72513C29.3498 2.72513 27.6389 3.08126 26.1524 3.79351C24.7883 4.43295 23.7045 5.32017 22.9011 6.45515L26.1614 9.71994L21.8994 13.9875ZM83.9124 6.78964C82.9989 6.78964 82.3176 6.60383 81.8685 6.23222C81.4195 5.86061 81.195 5.249 81.195 4.39738C81.195 3.54577 81.4195 2.93416 81.8685 2.56255C82.3176 2.19093 82.9989 2.00513 83.9124 2.00513C84.8259 2.00513 85.515 2.19093 85.9795 2.56255C86.444 2.93416 86.6763 3.54577 86.6763 4.39738C86.6763 5.249 86.4518 5.86061 86.0027 6.23222C85.5537 6.60383 84.8569 6.78964 83.9124 6.78964ZM81.613 7.7419H86.3047V19.3548H81.613V7.7419ZM50.867 19.7264C49.3806 19.7264 48.0722 19.4709 46.9418 18.96C45.827 18.449 44.9599 17.729 44.3406 16.8C43.7212 15.8554 43.4115 14.7716 43.4115 13.5483C43.4115 12.3251 43.7212 11.249 44.3406 10.32C44.9599 9.37544 45.827 8.6477 46.9418 8.13674C48.0722 7.62577 49.3806 7.37028 50.867 7.37028C52.3535 7.37028 53.6541 7.62577 54.7689 8.13674C55.8993 8.6477 56.7741 9.37544 57.3934 10.32C58.0128 11.249 58.3225 12.3251 58.3225 13.5483C58.3225 14.7716 58.0128 15.8554 57.3934 16.8C56.7741 17.729 55.8993 18.449 54.7689 18.96C53.6541 19.4709 52.3535 19.7264 50.867 19.7264ZM50.867 15.9638C51.7651 15.9638 52.4851 15.7471 53.027 15.3135C53.5844 14.8645 53.8631 14.2761 53.8631 13.5483C53.8631 12.8206 53.5844 12.24 53.027 11.8064C52.4851 11.3574 51.7651 11.1329 50.867 11.1329C49.9689 11.1329 49.2412 11.3574 48.6838 11.8064C48.1418 12.24 47.8709 12.8206 47.8709 13.5483C47.8709 14.2761 48.1418 14.8645 48.6838 15.3135C49.2412 15.7471 49.9689 15.9638 50.867 15.9638ZM73.9979 3.09674H60.8753V19.3548H65.5669L65.5437 12.8051H68.5631C69.4301 12.8051 70.1424 12.9754 70.6998 13.3161C71.2572 13.6567 71.8224 14.2529 72.3953 15.1045C72.9682 15.9406 73.8121 17.3574 74.9269 19.3548H80.6405C79.7114 17.4348 78.8753 15.9406 78.1321 14.8722C77.3889 13.8038 76.5605 12.9909 75.6469 12.4335C74.7489 11.8761 73.6418 11.5587 72.3256 11.4812H73.9979C75.5927 11.4812 76.8624 11.1251 77.8069 10.4129C78.7514 9.68512 79.2237 8.67867 79.2237 7.39351C79.2237 6.10835 78.7592 5.07093 77.8301 4.28125C76.9166 3.49158 75.6392 3.09674 73.9979 3.09674ZM74.1837 8.97286C73.9669 9.15867 73.634 9.25157 73.185 9.25157H65.5437L65.5205 6.85932H73.185C73.634 6.85932 73.9669 6.95996 74.1837 7.16125C74.416 7.34706 74.5321 7.64899 74.5321 8.06706C74.5321 8.48512 74.416 8.78706 74.1837 8.97286ZM89.8635 23.3264C91.706 23.7754 93.8738 23.9999 96.3667 23.9999C98.8131 23.9999 100.741 23.5045 102.15 22.5135C103.559 21.5225 104.263 20.0051 104.263 17.9612V7.7419H99.5486L99.9202 11.5045H99.5254C99.2776 10.2658 98.6428 9.26706 97.6209 8.50835C96.6144 7.74964 95.4144 7.37028 94.0209 7.37028C92.8596 7.37028 91.8299 7.62577 90.9319 8.13674C90.0493 8.63222 89.3602 9.34448 88.8648 10.2735C88.3848 11.1871 88.1448 12.2477 88.1448 13.4554C88.1448 15.298 88.6712 16.7303 89.7241 17.7522C90.777 18.7587 92.1938 19.2619 93.9744 19.2619C95.4299 19.2619 96.6609 18.9832 97.6673 18.4258C98.6893 17.8529 99.3551 17.0245 99.6647 15.9406V16.08C99.5873 17.2103 99.417 18.0696 99.1538 18.658C98.8906 19.2464 98.457 19.6567 97.8531 19.889C97.2647 20.1212 96.4054 20.2374 95.2751 20.2374C94.1138 20.2374 93.0299 20.1522 92.0235 19.9819C91.017 19.827 90.297 19.6412 89.8635 19.4245V23.3264ZM98.1783 15.36C97.5435 15.7625 96.7693 15.9638 95.8557 15.9638C94.9576 15.9638 94.1912 15.7625 93.5564 15.36C92.9215 14.9419 92.6041 14.3225 92.6041 13.5019C92.6041 12.6967 92.9215 12.1006 93.5564 11.7135C94.1912 11.3264 94.9576 11.1329 95.8557 11.1329C96.7693 11.1329 97.5435 11.3264 98.1783 11.7135C98.8286 12.1006 99.1538 12.6967 99.1538 13.5019C99.1538 14.3225 98.8286 14.9419 98.1783 15.36ZM106.358 3.09674H111.375L110.91 12.5264H111.142C111.344 11.2413 111.669 10.2271 112.118 9.48383C112.567 8.74061 113.179 8.20641 113.953 7.88125C114.727 7.54061 115.733 7.37028 116.972 7.37028C118.133 7.38577 119.039 7.57932 119.69 7.95093C120.355 8.30706 120.843 8.98061 121.153 9.97157C121.478 10.9625 121.641 12.4103 121.641 14.3148V19.3548H116.949V14.7096C116.949 13.7032 116.856 12.929 116.67 12.3871C116.5 11.8296 116.221 11.4425 115.834 11.2258C115.462 11.009 114.944 10.9006 114.278 10.9006C113.659 10.9006 113.101 11.1019 112.606 11.5045C112.126 11.8916 111.746 12.4335 111.468 13.1303C111.189 13.8271 111.05 14.6012 111.05 15.4529V19.3548H106.358V3.09674ZM125.822 19.1922C126.318 19.4554 127.069 19.587 128.075 19.587C129.267 19.587 130.436 19.4322 131.582 19.1225V16.3354C131.087 16.3664 130.777 16.3819 130.653 16.3819C130.204 16.3819 129.887 16.3277 129.701 16.2193C129.515 16.0954 129.399 15.9174 129.353 15.6851C129.306 15.4529 129.283 15.0503 129.283 14.4774V11.1793H131.582V7.7419H129.283V4.49029L125.056 4.9548V7.7419H123.267V11.1793H124.591V15.1741C124.591 16.3664 124.676 17.2645 124.847 17.8683C125.017 18.4722 125.342 18.9135 125.822 19.1922Z" fill="#1B2221"/>
<path d="M13.532 0.0130064L23.2258 9.71999L13.532 19.4263H7.12149L14.5017 12.0463H0V7.3419H14.4495L7.10825 0L13.532 0.0130064Z" fill="#1B2221"/>
</svg>
